<svg width="220" height="79" viewBox="0 0 220 79" fill="none" xmlns="http://www.w3.org/2000/svg">
<rect width="220" height="79" rx="16" fill="#EFD372"/>
<path d="M49.8105 43.7148V46H42.2422V43.7148H49.8105ZM43.1992 31.7812V46H40.2695V31.7812H43.1992ZM48.8242 37.5723V39.7988H42.2422V37.5723H48.8242ZM49.8008 31.7812V34.0762H42.2422V31.7812H49.8008ZM53.6094 35.4336L55.3574 38.6465L57.1543 35.4336H60.1523L57.1641 40.5996L60.2891 46H57.2812L55.377 42.6016L53.4727 46H50.4648L53.5898 40.5996L50.6016 35.4336H53.6094ZM64.332 37.4648V50.0625H61.5195V35.4336H64.127L64.332 37.4648ZM71.0215 40.5996V40.8047C71.0215 41.5729 70.9303 42.2858 70.748 42.9434C70.5723 43.6009 70.3118 44.1738 69.9668 44.6621C69.6217 45.1439 69.1921 45.5215 68.6777 45.7949C68.1699 46.0618 67.584 46.1953 66.9199 46.1953C66.2754 46.1953 65.7155 46.0651 65.2402 45.8047C64.765 45.5443 64.3646 45.1797 64.0391 44.7109C63.7201 44.2357 63.4629 43.6855 63.2676 43.0605C63.0723 42.4355 62.9225 41.765 62.8184 41.0488V40.5117C62.9225 39.7435 63.0723 39.0404 63.2676 38.4023C63.4629 37.7578 63.7201 37.2012 64.0391 36.7324C64.3646 36.2572 64.7617 35.8893 65.2305 35.6289C65.7057 35.3685 66.2624 35.2383 66.9004 35.2383C67.571 35.2383 68.1602 35.3652 68.668 35.6191C69.1823 35.873 69.612 36.2376 69.957 36.7129C70.3086 37.1882 70.5723 37.7546 70.748 38.4121C70.9303 39.0697 71.0215 39.7988 71.0215 40.5996ZM68.1992 40.8047V40.5996C68.1992 40.1504 68.1602 39.737 68.082 39.3594C68.0104 38.9753 67.8932 38.64 67.7305 38.3535C67.5742 38.0671 67.3659 37.8457 67.1055 37.6895C66.8516 37.5267 66.5423 37.4453 66.1777 37.4453C65.7936 37.4453 65.4648 37.5072 65.1914 37.6309C64.9245 37.7546 64.7064 37.9336 64.5371 38.168C64.3678 38.4023 64.2409 38.6823 64.1562 39.0078C64.0716 39.3333 64.0195 39.7012 64 40.1113V41.4688C64.0326 41.9505 64.1237 42.3835 64.2734 42.7676C64.4232 43.1452 64.6543 43.4447 64.9668 43.666C65.2793 43.8874 65.6895 43.998 66.1973 43.998C66.5684 43.998 66.8809 43.9167 67.1348 43.7539C67.3887 43.5846 67.5938 43.3535 67.75 43.0605C67.9128 42.7676 68.0267 42.429 68.0918 42.0449C68.1634 41.6608 68.1992 41.2474 68.1992 40.8047ZM75.7383 31V46H72.916V31H75.7383ZM77.6133 40.8242V40.6191C77.6133 39.8444 77.724 39.1315 77.9453 38.4805C78.1667 37.8229 78.4889 37.2533 78.9121 36.7715C79.3353 36.2897 79.8561 35.9154 80.4746 35.6484C81.0931 35.375 81.8027 35.2383 82.6035 35.2383C83.4043 35.2383 84.1172 35.375 84.7422 35.6484C85.3672 35.9154 85.8913 36.2897 86.3145 36.7715C86.7441 37.2533 87.0697 37.8229 87.291 38.4805C87.5124 39.1315 87.623 39.8444 87.623 40.6191V40.8242C87.623 41.5924 87.5124 42.3053 87.291 42.9629C87.0697 43.6139 86.7441 44.1836 86.3145 44.6719C85.8913 45.1536 85.3704 45.528 84.752 45.7949C84.1335 46.0618 83.4238 46.1953 82.623 46.1953C81.8223 46.1953 81.1094 46.0618 80.4844 45.7949C79.8659 45.528 79.3418 45.1536 78.9121 44.6719C78.4889 44.1836 78.1667 43.6139 77.9453 42.9629C77.724 42.3053 77.6133 41.5924 77.6133 40.8242ZM80.4258 40.6191V40.8242C80.4258 41.2669 80.4648 41.6803 80.543 42.0645C80.6211 42.4486 80.7448 42.7871 80.9141 43.0801C81.0898 43.3665 81.3177 43.5911 81.5977 43.7539C81.8776 43.9167 82.2194 43.998 82.623 43.998C83.0137 43.998 83.349 43.9167 83.6289 43.7539C83.9089 43.5911 84.1335 43.3665 84.3027 43.0801C84.472 42.7871 84.5957 42.4486 84.6738 42.0645C84.7585 41.6803 84.8008 41.2669 84.8008 40.8242V40.6191C84.8008 40.1895 84.7585 39.7858 84.6738 39.4082C84.5957 39.0241 84.4688 38.6855 84.293 38.3926C84.1237 38.0931 83.8991 37.8587 83.6191 37.6895C83.3392 37.5202 83.0007 37.4355 82.6035 37.4355C82.2064 37.4355 81.8678 37.5202 81.5879 37.6895C81.3145 37.8587 81.0898 38.0931 80.9141 38.3926C80.7448 38.6855 80.6211 39.0241 80.543 39.4082C80.4648 39.7858 80.4258 40.1895 80.4258 40.6191ZM92.1641 37.7383V46H89.3516V35.4336H91.998L92.1641 37.7383ZM95.3477 35.3652L95.2988 37.9727C95.1621 37.9531 94.9961 37.9368 94.8008 37.9238C94.612 37.9043 94.4395 37.8945 94.2832 37.8945C93.8861 37.8945 93.541 37.9466 93.248 38.0508C92.9616 38.1484 92.7207 38.2949 92.5254 38.4902C92.3366 38.6855 92.1934 38.9232 92.0957 39.2031C92.0046 39.4831 91.9525 39.8021 91.9395 40.1602L91.373 39.9844C91.373 39.3008 91.4414 38.6725 91.5781 38.0996C91.7148 37.5202 91.9134 37.0156 92.1738 36.5859C92.4408 36.1562 92.7663 35.8242 93.1504 35.5898C93.5345 35.3555 93.974 35.2383 94.4688 35.2383C94.625 35.2383 94.7845 35.2513 94.9473 35.2773C95.11 35.2969 95.2435 35.3262 95.3477 35.3652ZM101.344 46.1953C100.523 46.1953 99.7878 46.0651 99.1367 45.8047C98.4857 45.5378 97.9323 45.1699 97.4766 44.7012C97.0273 44.2324 96.6823 43.6888 96.4414 43.0703C96.2005 42.4453 96.0801 41.7812 96.0801 41.0781V40.6875C96.0801 39.8867 96.194 39.1543 96.4219 38.4902C96.6497 37.8262 96.9753 37.25 97.3984 36.7617C97.8281 36.2734 98.349 35.8991 98.9609 35.6387C99.5729 35.3717 100.263 35.2383 101.031 35.2383C101.78 35.2383 102.444 35.362 103.023 35.6094C103.603 35.8568 104.088 36.2083 104.479 36.6641C104.876 37.1198 105.175 37.6667 105.377 38.3047C105.579 38.9362 105.68 39.6393 105.68 40.4141V41.5859H97.2812V39.7109H102.916V39.4961C102.916 39.1055 102.844 38.7572 102.701 38.4512C102.564 38.1387 102.356 37.8913 102.076 37.709C101.796 37.5267 101.438 37.4355 101.002 37.4355C100.631 37.4355 100.312 37.5169 100.045 37.6797C99.778 37.8424 99.5599 38.0703 99.3906 38.3633C99.2279 38.6562 99.1042 39.0013 99.0195 39.3984C98.9414 39.7891 98.9023 40.2188 98.9023 40.6875V41.0781C98.9023 41.5013 98.9609 41.8919 99.0781 42.25C99.2018 42.6081 99.3743 42.9173 99.5957 43.1777C99.8236 43.4382 100.097 43.64 100.416 43.7832C100.742 43.9264 101.109 43.998 101.52 43.998C102.027 43.998 102.499 43.9004 102.936 43.7051C103.378 43.5033 103.759 43.2005 104.078 42.7969L105.445 44.2812C105.224 44.6003 104.921 44.9062 104.537 45.1992C104.16 45.4922 103.704 45.7331 103.17 45.9219C102.636 46.1042 102.027 46.1953 101.344 46.1953ZM124.01 31.7812V46H121.08L115.367 36.4688V46H112.438V31.7812H115.367L121.09 41.3223V31.7812H124.01ZM125.934 40.8242V40.6191C125.934 39.8444 126.044 39.1315 126.266 38.4805C126.487 37.8229 126.809 37.2533 127.232 36.7715C127.656 36.2897 128.176 35.9154 128.795 35.6484C129.413 35.375 130.123 35.2383 130.924 35.2383C131.725 35.2383 132.438 35.375 133.062 35.6484C133.688 35.9154 134.212 36.2897 134.635 36.7715C135.064 37.2533 135.39 37.8229 135.611 38.4805C135.833 39.1315 135.943 39.8444 135.943 40.6191V40.8242C135.943 41.5924 135.833 42.3053 135.611 42.9629C135.39 43.6139 135.064 44.1836 134.635 44.6719C134.212 45.1536 133.691 45.528 133.072 45.7949C132.454 46.0618 131.744 46.1953 130.943 46.1953C130.143 46.1953 129.43 46.0618 128.805 45.7949C128.186 45.528 127.662 45.1536 127.232 44.6719C126.809 44.1836 126.487 43.6139 126.266 42.9629C126.044 42.3053 125.934 41.5924 125.934 40.8242ZM128.746 40.6191V40.8242C128.746 41.2669 128.785 41.6803 128.863 42.0645C128.941 42.4486 129.065 42.7871 129.234 43.0801C129.41 43.3665 129.638 43.5911 129.918 43.7539C130.198 43.9167 130.54 43.998 130.943 43.998C131.334 43.998 131.669 43.9167 131.949 43.7539C132.229 43.5911 132.454 43.3665 132.623 43.0801C132.792 42.7871 132.916 42.4486 132.994 42.0645C133.079 41.6803 133.121 41.2669 133.121 40.8242V40.6191C133.121 40.1895 133.079 39.7858 132.994 39.4082C132.916 39.0241 132.789 38.6855 132.613 38.3926C132.444 38.0931 132.219 37.8587 131.939 37.6895C131.66 37.5202 131.321 37.4355 130.924 37.4355C130.527 37.4355 130.188 37.5202 129.908 37.6895C129.635 37.8587 129.41 38.0931 129.234 38.3926C129.065 38.6855 128.941 39.0241 128.863 39.4082C128.785 39.7858 128.746 40.1895 128.746 40.6191ZM140.689 43.2656L142.887 35.4336H144.674L144.098 38.5098L141.9 46H140.406L140.689 43.2656ZM139.576 35.4336L141.148 43.2559L141.295 46H139.537L136.861 35.4336H139.576ZM146.686 43.1289L148.219 35.4336H150.943L148.268 46H146.52L146.686 43.1289ZM144.918 35.4336L147.105 43.207L147.408 46H145.904L143.707 38.5195L143.15 35.4336H144.918Z" fill="#274C5B"/>
<circle cx="171.5" cy="39.5" r="9.5" fill="#335B6B"/>
<path d="M171.476 36.1289L174.871 39.1934L171.476 42.2579M174.399 39.1934H167.516" stroke="white" stroke-linecap="round" stroke-linejoin="round"/>
</svg>
