<svg width="220" height="80" viewBox="0 0 220 80" fill="none" xmlns="http://www.w3.org/2000/svg">
<rect width="220" height="80" rx="16" fill="#EFD372"/>
<path d="M48.2695 31.7812H53.5723C54.6595 31.7812 55.5938 31.944 56.375 32.2695C57.1628 32.5951 57.7682 33.0768 58.1914 33.7148C58.6146 34.3529 58.8262 35.1374 58.8262 36.0684C58.8262 36.8301 58.696 37.4844 58.4355 38.0312C58.1816 38.5716 57.8203 39.0241 57.3516 39.3887C56.8893 39.7467 56.3457 40.0332 55.7207 40.248L54.793 40.7363H50.1836L50.1641 38.4512H53.5918C54.1061 38.4512 54.5326 38.36 54.8711 38.1777C55.2096 37.9954 55.4635 37.7415 55.6328 37.416C55.8086 37.0905 55.8965 36.7129 55.8965 36.2832C55.8965 35.8275 55.8118 35.4336 55.6426 35.1016C55.4733 34.7695 55.2161 34.5156 54.8711 34.3398C54.526 34.1641 54.0931 34.0762 53.5723 34.0762H51.1992V46H48.2695V31.7812ZM56.2188 46L52.9766 39.6621L56.0723 39.6426L59.3535 45.8633V46H56.2188ZM65.7695 46.1953C64.9492 46.1953 64.2135 46.0651 63.5625 45.8047C62.9115 45.5378 62.3581 45.1699 61.9023 44.7012C61.4531 44.2324 61.1081 43.6888 60.8672 43.0703C60.6263 42.4453 60.5059 41.7812 60.5059 41.0781V40.6875C60.5059 39.8867 60.6198 39.1543 60.8477 38.4902C61.0755 37.8262 61.401 37.25 61.8242 36.7617C62.2539 36.2734 62.7747 35.8991 63.3867 35.6387C63.9987 35.3717 64.6888 35.2383 65.457 35.2383C66.2057 35.2383 66.8698 35.362 67.4492 35.6094C68.0286 35.8568 68.5137 36.2083 68.9043 36.6641C69.3014 37.1198 69.6009 37.6667 69.8027 38.3047C70.0046 38.9362 70.1055 39.6393 70.1055 40.4141V41.5859H61.707V39.7109H67.3418V39.4961C67.3418 39.1055 67.2702 38.7572 67.127 38.4512C66.9902 38.1387 66.7819 37.8913 66.502 37.709C66.222 37.5267 65.8639 37.4355 65.4277 37.4355C65.0566 37.4355 64.7376 37.5169 64.4707 37.6797C64.2038 37.8424 63.9857 38.0703 63.8164 38.3633C63.6536 38.6562 63.5299 39.0013 63.4453 39.3984C63.3672 39.7891 63.3281 40.2188 63.3281 40.6875V41.0781C63.3281 41.5013 63.3867 41.8919 63.5039 42.25C63.6276 42.6081 63.8001 42.9173 64.0215 43.1777C64.2493 43.4382 64.5228 43.64 64.8418 43.7832C65.1673 43.9264 65.5352 43.998 65.9453 43.998C66.4531 43.998 66.9251 43.9004 67.3613 43.7051C67.804 43.5033 68.1849 43.2005 68.5039 42.7969L69.8711 44.2812C69.6497 44.6003 69.347 44.9062 68.9629 45.1992C68.5853 45.4922 68.1296 45.7331 67.5957 45.9219C67.0618 46.1042 66.4531 46.1953 65.7695 46.1953ZM77.4102 43.6172V38.9102C77.4102 38.5716 77.3548 38.2819 77.2441 38.041C77.1335 37.7936 76.9609 37.6016 76.7266 37.4648C76.4987 37.3281 76.2025 37.2598 75.8379 37.2598C75.5254 37.2598 75.2552 37.3151 75.0273 37.4258C74.7995 37.5299 74.6237 37.6829 74.5 37.8848C74.3763 38.0801 74.3145 38.3112 74.3145 38.5781H71.502C71.502 38.1289 71.6061 37.7025 71.8145 37.2988C72.0228 36.8952 72.3255 36.5404 72.7227 36.2344C73.1198 35.9219 73.5918 35.6777 74.1387 35.502C74.6921 35.3262 75.3105 35.2383 75.9941 35.2383C76.8145 35.2383 77.5436 35.375 78.1816 35.6484C78.8197 35.9219 79.321 36.332 79.6855 36.8789C80.0566 37.4258 80.2422 38.1094 80.2422 38.9297V43.4512C80.2422 44.0306 80.278 44.5059 80.3496 44.877C80.4212 45.2415 80.5254 45.5605 80.6621 45.834V46H77.8203C77.6836 45.7135 77.5794 45.3555 77.5078 44.9258C77.4427 44.4896 77.4102 44.0534 77.4102 43.6172ZM77.7812 39.5645L77.8008 41.1562H76.2285C75.8574 41.1562 75.5352 41.1986 75.2617 41.2832C74.9883 41.3678 74.7637 41.4883 74.5879 41.6445C74.4121 41.7943 74.2819 41.9701 74.1973 42.1719C74.1191 42.3737 74.0801 42.5951 74.0801 42.8359C74.0801 43.0768 74.1354 43.2949 74.2461 43.4902C74.3568 43.679 74.5163 43.8288 74.7246 43.9395C74.9329 44.0436 75.1771 44.0957 75.457 44.0957C75.8802 44.0957 76.248 44.0111 76.5605 43.8418C76.873 43.6725 77.1139 43.4642 77.2832 43.2168C77.459 42.9694 77.5501 42.735 77.5566 42.5137L78.2988 43.7051C78.1947 43.972 78.0514 44.2487 77.8691 44.5352C77.6934 44.8216 77.4688 45.0918 77.1953 45.3457C76.9219 45.5931 76.5931 45.7982 76.209 45.9609C75.8249 46.1172 75.3691 46.1953 74.8418 46.1953C74.1712 46.1953 73.5625 46.0618 73.0156 45.7949C72.4753 45.5215 72.0456 45.1471 71.7266 44.6719C71.4141 44.1901 71.2578 43.6432 71.2578 43.0312C71.2578 42.4779 71.362 41.9863 71.5703 41.5566C71.7786 41.127 72.0846 40.7656 72.4883 40.4727C72.8984 40.1732 73.4095 39.9486 74.0215 39.7988C74.6335 39.6426 75.3431 39.5645 76.1504 39.5645H77.7812ZM88.6504 43.6953V31H91.4824V46H88.9336L88.6504 43.6953ZM81.9707 40.8438V40.6387C81.9707 39.8314 82.0618 39.099 82.2441 38.4414C82.4264 37.7773 82.6934 37.2077 83.0449 36.7324C83.3965 36.2572 83.8294 35.8893 84.3438 35.6289C84.8581 35.3685 85.444 35.2383 86.1016 35.2383C86.7201 35.2383 87.2604 35.3685 87.7227 35.6289C88.1914 35.8893 88.5885 36.2604 88.9141 36.7422C89.2461 37.2174 89.513 37.7806 89.7148 38.4316C89.9167 39.0762 90.0632 39.7826 90.1543 40.5508V41C90.0632 41.7357 89.9167 42.4193 89.7148 43.0508C89.513 43.6823 89.2461 44.2357 88.9141 44.7109C88.5885 45.1797 88.1914 45.5443 87.7227 45.8047C87.2539 46.0651 86.707 46.1953 86.082 46.1953C85.4245 46.1953 84.8385 46.0618 84.3242 45.7949C83.8164 45.528 83.3867 45.1536 83.0352 44.6719C82.6901 44.1901 82.4264 43.6237 82.2441 42.9727C82.0618 42.3216 81.9707 41.612 81.9707 40.8438ZM84.7832 40.6387V40.8438C84.7832 41.2799 84.8158 41.6868 84.8809 42.0645C84.9525 42.4421 85.0664 42.7773 85.2227 43.0703C85.3854 43.3568 85.5938 43.5814 85.8477 43.7441C86.1081 43.9004 86.4238 43.9785 86.7949 43.9785C87.2767 43.9785 87.6738 43.8711 87.9863 43.6562C88.2988 43.4349 88.5365 43.1322 88.6992 42.748C88.8685 42.3639 88.9661 41.9212 88.9922 41.4199V40.1406C88.9727 39.7305 88.9141 39.3626 88.8164 39.0371C88.7253 38.7051 88.5885 38.4219 88.4062 38.1875C88.2305 37.9531 88.0091 37.7708 87.7422 37.6406C87.4818 37.5104 87.1725 37.4453 86.8145 37.4453C86.4499 37.4453 86.1374 37.5299 85.877 37.6992C85.6165 37.862 85.4049 38.0866 85.2422 38.373C85.0859 38.6595 84.9688 38.998 84.8906 39.3887C84.819 39.7728 84.7832 40.1895 84.7832 40.6387ZM100.174 31.7812H102.654L106.307 42.2207L109.959 31.7812H112.439L107.303 46H105.311L100.174 31.7812ZM98.8359 31.7812H101.307L101.756 41.957V46H98.8359V31.7812ZM111.307 31.7812H113.787V46H110.857V41.957L111.307 31.7812ZM115.73 40.8242V40.6191C115.73 39.8444 115.841 39.1315 116.062 38.4805C116.284 37.8229 116.606 37.2533 117.029 36.7715C117.452 36.2897 117.973 35.9154 118.592 35.6484C119.21 35.375 119.92 35.2383 120.721 35.2383C121.521 35.2383 122.234 35.375 122.859 35.6484C123.484 35.9154 124.008 36.2897 124.432 36.7715C124.861 37.2533 125.187 37.8229 125.408 38.4805C125.63 39.1315 125.74 39.8444 125.74 40.6191V40.8242C125.74 41.5924 125.63 42.3053 125.408 42.9629C125.187 43.6139 124.861 44.1836 124.432 44.6719C124.008 45.1536 123.488 45.528 122.869 45.7949C122.251 46.0618 121.541 46.1953 120.74 46.1953C119.939 46.1953 119.227 46.0618 118.602 45.7949C117.983 45.528 117.459 45.1536 117.029 44.6719C116.606 44.1836 116.284 43.6139 116.062 42.9629C115.841 42.3053 115.73 41.5924 115.73 40.8242ZM118.543 40.6191V40.8242C118.543 41.2669 118.582 41.6803 118.66 42.0645C118.738 42.4486 118.862 42.7871 119.031 43.0801C119.207 43.3665 119.435 43.5911 119.715 43.7539C119.995 43.9167 120.337 43.998 120.74 43.998C121.131 43.998 121.466 43.9167 121.746 43.7539C122.026 43.5911 122.251 43.3665 122.42 43.0801C122.589 42.7871 122.713 42.4486 122.791 42.0645C122.876 41.6803 122.918 41.2669 122.918 40.8242V40.6191C122.918 40.1895 122.876 39.7858 122.791 39.4082C122.713 39.0241 122.586 38.6855 122.41 38.3926C122.241 38.0931 122.016 37.8587 121.736 37.6895C121.456 37.5202 121.118 37.4355 120.721 37.4355C120.324 37.4355 119.985 37.5202 119.705 37.6895C119.432 37.8587 119.207 38.0931 119.031 38.3926C118.862 38.6855 118.738 39.0241 118.66 39.4082C118.582 39.7858 118.543 40.1895 118.543 40.6191ZM130.281 37.7383V46H127.469V35.4336H130.115L130.281 37.7383ZM133.465 35.3652L133.416 37.9727C133.279 37.9531 133.113 37.9368 132.918 37.9238C132.729 37.9043 132.557 37.8945 132.4 37.8945C132.003 37.8945 131.658 37.9466 131.365 38.0508C131.079 38.1484 130.838 38.2949 130.643 38.4902C130.454 38.6855 130.311 38.9232 130.213 39.2031C130.122 39.4831 130.07 39.8021 130.057 40.1602L129.49 39.9844C129.49 39.3008 129.559 38.6725 129.695 38.0996C129.832 37.5202 130.031 37.0156 130.291 36.5859C130.558 36.1562 130.883 35.8242 131.268 35.5898C131.652 35.3555 132.091 35.2383 132.586 35.2383C132.742 35.2383 132.902 35.2513 133.064 35.2773C133.227 35.2969 133.361 35.3262 133.465 35.3652ZM139.461 46.1953C138.641 46.1953 137.905 46.0651 137.254 45.8047C136.603 45.5378 136.049 45.1699 135.594 44.7012C135.145 44.2324 134.799 43.6888 134.559 43.0703C134.318 42.4453 134.197 41.7812 134.197 41.0781V40.6875C134.197 39.8867 134.311 39.1543 134.539 38.4902C134.767 37.8262 135.092 37.25 135.516 36.7617C135.945 36.2734 136.466 35.8991 137.078 35.6387C137.69 35.3717 138.38 35.2383 139.148 35.2383C139.897 35.2383 140.561 35.362 141.141 35.6094C141.72 35.8568 142.205 36.2083 142.596 36.6641C142.993 37.1198 143.292 37.6667 143.494 38.3047C143.696 38.9362 143.797 39.6393 143.797 40.4141V41.5859H135.398V39.7109H141.033V39.4961C141.033 39.1055 140.962 38.7572 140.818 38.4512C140.682 38.1387 140.473 37.8913 140.193 37.709C139.913 37.5267 139.555 37.4355 139.119 37.4355C138.748 37.4355 138.429 37.5169 138.162 37.6797C137.895 37.8424 137.677 38.0703 137.508 38.3633C137.345 38.6562 137.221 39.0013 137.137 39.3984C137.059 39.7891 137.02 40.2188 137.02 40.6875V41.0781C137.02 41.5013 137.078 41.8919 137.195 42.25C137.319 42.6081 137.492 42.9173 137.713 43.1777C137.941 43.4382 138.214 43.64 138.533 43.7832C138.859 43.9264 139.227 43.998 139.637 43.998C140.145 43.998 140.617 43.9004 141.053 43.7051C141.495 43.5033 141.876 43.2005 142.195 42.7969L143.562 44.2812C143.341 44.6003 143.038 44.9062 142.654 45.1992C142.277 45.4922 141.821 45.7331 141.287 45.9219C140.753 46.1042 140.145 46.1953 139.461 46.1953Z" fill="#274C5B"/>
<circle cx="163.5" cy="39.5" r="9.5" fill="#335B6B"/>
<path d="M163.476 36.1289L166.871 39.1934L163.476 42.2579M166.399 39.1934H159.516" stroke="white" stroke-linecap="round" stroke-linejoin="round"/>
</svg>
